<svg width="113" height="35" viewBox="0 0 113 35" fill="none" xmlns="http://www.w3.org/2000/svg">
<g filter="url(#filter0_d_6_3)">
<path d="M16 12V3H19V12H16ZM4 27V0H16V3H7V12H16V15H7V27H4ZM25 27V24H34V27H25ZM22 24V3H25V24H22ZM34 24V3H37V24H34ZM25 3V0H34V3H25ZM52 27V21H55V27H52ZM49 21V15H52V21H49ZM49 6V3H52V6H49ZM40 27V0H43V9H46V6H49V15H46V12H43V27H40ZM52 3V0H55V3H52ZM58 27V0H73V3H61V12H73V15H61V24H73V27H58ZM79 27V24H82V3H79V0H88V3H85V24H88V27H79ZM97 27V24H106V27H97ZM94 24V3H97V24H94ZM106 24V3H109V24H106ZM97 3V0H106V3H97Z" fill="white"/>
</g>
<defs>
<filter id="filter0_d_6_3" x="0" y="0" width="113" height="35" filterUnits="userSpaceOnUse" color-interpolation-filters="sRGB">
<feFlood flood-opacity="0" result="BackgroundImageFix"/>
<feColorMatrix in="SourceAlpha" type="matrix" values="0 0 0 0 0 0 0 0 0 0 0 0 0 0 0 0 0 0 127 0" result="hardAlpha"/>
<feOffset dy="4"/>
<feGaussianBlur stdDeviation="2"/>
<feComposite in2="hardAlpha" operator="out"/>
<feColorMatrix type="matrix" values="0 0 0 0 0 0 0 0 0 0 0 0 0 0 0 0 0 0 0.25 0"/>
<feBlend mode="normal" in2="BackgroundImageFix" result="effect1_dropShadow_6_3"/>
<feBlend mode="normal" in="SourceGraphic" in2="effect1_dropShadow_6_3" result="shape"/>
</filter>
</defs>
</svg>
  