<svg width="109" height="46" viewBox="0 0 109 46" fill="none" xmlns="http://www.w3.org/2000/svg">
<g filter="url(#filter0_d_1_2)">
<path d="M4.63867 5.62012C5.97786 5.17741 7.23405 4.7679 8.40723 4.3916C9.59147 4.0153 10.8366 3.66113 12.1426 3.3291C13.4486 2.986 14.6992 2.71484 15.8945 2.51562C16.8132 2.36068 17.7539 2.2832 18.7168 2.2832C20.3216 2.2832 21.373 2.32747 21.8711 2.41602C22.6237 2.5599 23.332 2.79232 23.9961 3.11328C24.6712 3.43424 25.2689 3.86589 25.7891 4.4082C26.3203 4.93945 26.752 5.57031 27.084 6.30078C27.2168 6.59961 27.2832 6.91504 27.2832 7.24707C27.2832 8.48665 26.6025 10.014 25.2412 11.8291C23.891 13.6442 22.5296 15.2269 21.1572 16.5771C19.7959 17.9274 18.7777 18.8958 18.1025 19.4824L21.0908 29.958L16.7412 33.0957L9.12109 11.3311C9.09896 11.3311 8.99382 11.4362 8.80566 11.6465C8.61751 11.8568 8.36849 12.1335 8.05859 12.4766C7.75977 12.8086 7.57161 13.0133 7.49414 13.0908C7.46094 13.0908 7.35026 12.8529 7.16211 12.377C6.98503 11.901 6.74154 11.2425 6.43164 10.4014C6.13281 9.54915 5.79525 8.6084 5.41895 7.5791C5.03158 6.53874 4.77148 5.88574 4.63867 5.62012ZM15.3799 10.2354L16.7412 15.1328C17.4274 14.4355 18.2796 13.4837 19.2979 12.2773C20.3161 11.071 20.8252 10.1966 20.8252 9.6543C20.8252 9.44401 20.7367 9.32227 20.5596 9.28906C20.0615 9.17839 19.569 9.12305 19.082 9.12305C17.6211 9.12305 16.387 9.49382 15.3799 10.2354ZM39.751 14.0205C40.5368 14.4411 41.1732 15.0111 41.6602 15.7305C42.1582 16.4388 42.5179 17.2412 42.7393 18.1377C42.9717 19.0231 43.0879 19.9473 43.0879 20.9102C43.0879 21.707 43.0215 22.4762 42.8887 23.2178C42.7669 23.9593 42.5954 24.64 42.374 25.2598C42.1527 25.8796 41.8926 26.4053 41.5938 26.8369C40.8965 27.8773 40.1494 28.7738 39.3525 29.5264C38.5557 30.279 37.7422 30.8877 36.9121 31.3525C36.082 31.8063 35.2575 32.1383 34.4385 32.3486C33.6305 32.57 32.8281 32.6807 32.0312 32.6807C31.0905 32.6807 30.194 32.5312 29.3418 32.2324C28.5007 31.9447 27.7812 31.5628 27.1836 31.0869C26.1986 30.2679 25.4294 29.1667 24.876 27.7832C24.3226 26.3887 24.0459 24.9167 24.0459 23.3672C24.0459 20.6999 24.8151 18.5472 26.3535 16.9092C27.6706 15.5036 29.0319 14.4466 30.4375 13.7383C31.8431 13.0189 33.2819 12.6592 34.7539 12.6592C35.6172 12.6592 36.4473 12.7699 37.2441 12.9912C38.041 13.2015 38.8766 13.5446 39.751 14.0205ZM38.7715 16.8096C38.5833 17.6507 38.1738 18.3923 37.543 19.0342C36.9232 19.6761 36.3145 19.9971 35.7168 19.9971C35.418 19.9971 35.1523 19.9196 34.9199 19.7646C34.5879 19.499 34.4219 19.0342 34.4219 18.3701C34.4219 17.861 34.5879 17.3574 34.9199 16.8594C35.263 16.3613 35.7998 15.9684 36.5303 15.6807C35.7998 15.6807 35.0915 15.819 34.4053 16.0957C33.7301 16.3724 33.1491 16.7321 32.6621 17.1748C32.1751 17.6064 31.7822 18.099 31.4834 18.6523C31.1956 19.1947 31.0518 19.7425 31.0518 20.2959C31.0518 21.3252 31.5277 22.1442 32.4795 22.7529C33.3649 23.3174 34.2061 23.5996 35.0029 23.5996C35.7887 23.5996 36.486 23.3395 37.0947 22.8193C37.7035 22.2881 38.1683 21.613 38.4893 20.7939C38.8102 19.9639 38.9707 19.1449 38.9707 18.3369C38.9707 17.7835 38.9043 17.2744 38.7715 16.8096ZM40.332 4.25879L48.7656 0.722656L49.9941 19.8975L56.9336 16.0957L64.1387 17.1748L54.7422 24.3799L63.5908 31.0537L63.9893 37.7109L50.9404 28.3311L51.3555 36.4824L43.4531 36.6318L41.959 7.79492L39.5186 8.34277L40.332 4.25879ZM75.6934 22.8193L79.6943 27.6504C79.3734 28.5801 78.6097 29.4323 77.4033 30.207C76.208 30.9818 74.7803 31.5905 73.1201 32.0332C71.471 32.487 69.8219 32.7139 68.1729 32.7139C66.7119 32.7139 65.4059 32.5202 64.2549 32.1328C63.1149 31.7454 62.235 31.1589 61.6152 30.373C60.5417 29.0228 60.0049 27.2962 60.0049 25.1934C60.0049 23.5332 60.3037 21.9007 60.9014 20.2959C61.5101 18.68 62.152 17.5511 62.8271 16.9092C63.6351 16.1455 64.5094 15.5091 65.4502 15C66.402 14.4909 67.387 14.109 68.4053 13.8545C69.4235 13.5999 70.4694 13.4727 71.543 13.4727C72.9486 13.4727 74.2822 13.6995 75.5439 14.1533C76.8167 14.596 77.929 15.2435 78.8809 16.0957L69.7666 26.9697C70.5745 26.9697 71.3382 26.8037 72.0576 26.4717C72.7881 26.1286 73.4577 25.6471 74.0664 25.0273C74.6751 24.3965 75.2174 23.6605 75.6934 22.8193ZM71.0947 18.9512C70.5524 18.6745 69.999 18.5361 69.4346 18.5361C68.8369 18.5361 68.2559 18.6579 67.6914 18.9014C67.138 19.1449 66.7451 19.4326 66.5127 19.7646C65.8265 20.6501 65.4834 21.624 65.4834 22.6865C65.4834 23.0739 65.5221 23.4447 65.5996 23.7988C65.6771 24.153 65.8099 24.64 65.998 25.2598L71.0947 18.9512ZM86.3682 35.1211L78.8809 35.5361L78.4824 17.7227L76.0254 18.2705L76.8389 14.1865L85.2725 10.6504L86.3682 35.1211ZM80.9229 0.589844C81.7087 0.589844 82.3838 0.722656 82.9482 0.988281C83.5238 1.24284 83.9941 1.55827 84.3594 1.93457C84.7246 2.2998 84.9736 2.62077 85.1064 2.89746C85.2393 3.19629 85.3057 3.52279 85.3057 3.87695C85.3057 4.41927 85.1895 4.97266 84.957 5.53711C84.7246 6.09049 84.4424 6.56641 84.1104 6.96484C83.7783 7.36328 83.4629 7.5957 83.1641 7.66211C82.5885 7.75065 82.1569 7.79492 81.8691 7.79492C81.1387 7.79492 80.5023 7.66764 79.96 7.41309C79.4176 7.15853 78.986 6.78776 78.665 6.30078C78.3441 5.8138 78.1449 5.24382 78.0674 4.59082C78.0674 3.65007 78.2943 2.77018 78.748 1.95117C79.2129 1.13216 79.9378 0.678385 80.9229 0.589844ZM100.944 14.0205C101.73 14.4411 102.367 15.0111 102.854 15.7305C103.352 16.4388 103.711 17.2412 103.933 18.1377C104.165 19.0231 104.281 19.9473 104.281 20.9102C104.281 21.707 104.215 22.4762 104.082 23.2178C103.96 23.9593 103.789 24.64 103.567 25.2598C103.346 25.8796 103.086 26.4053 102.787 26.8369C102.09 27.8773 101.343 28.7738 100.546 29.5264C99.749 30.279 98.9355 30.8877 98.1055 31.3525C97.2754 31.8063 96.4508 32.1383 95.6318 32.3486C94.8239 32.57 94.0215 32.6807 93.2246 32.6807C92.2839 32.6807 91.3874 32.5312 90.5352 32.2324C89.694 31.9447 88.9746 31.5628 88.377 31.0869C87.3919 30.2679 86.6227 29.1667 86.0693 27.7832C85.516 26.3887 85.2393 24.9167 85.2393 23.3672C85.2393 20.6999 86.0085 18.5472 87.5469 16.9092C88.8639 15.5036 90.2253 14.4466 91.6309 13.7383C93.0365 13.0189 94.4753 12.6592 95.9473 12.6592C96.8105 12.6592 97.6406 12.7699 98.4375 12.9912C99.2344 13.2015 100.07 13.5446 100.944 14.0205ZM99.9648 16.8096C99.7767 17.6507 99.3672 18.3923 98.7363 19.0342C98.1165 19.6761 97.5078 19.9971 96.9102 19.9971C96.6113 19.9971 96.3457 19.9196 96.1133 19.7646C95.7812 19.499 95.6152 19.0342 95.6152 18.3701C95.6152 17.861 95.7812 17.3574 96.1133 16.8594C96.4564 16.3613 96.9932 15.9684 97.7236 15.6807C96.9932 15.6807 96.2848 15.819 95.5986 16.0957C94.9235 16.3724 94.3424 16.7321 93.8555 17.1748C93.3685 17.6064 92.9756 18.099 92.6768 18.6523C92.389 19.1947 92.2451 19.7425 92.2451 20.2959C92.2451 21.3252 92.721 22.1442 93.6729 22.7529C94.5583 23.3174 95.3994 23.5996 96.1963 23.5996C96.9821 23.5996 97.6794 23.3395 98.2881 22.8193C98.8968 22.2881 99.3617 21.613 99.6826 20.7939C100.004 19.9639 100.164 19.1449 100.164 18.3369C100.164 17.7835 100.098 17.2744 99.9648 16.8096Z" fill="#FFCE00"/>
<path d="M4.63867 5.62012L4.3248 4.67065L3.22731 5.03346L3.74424 6.06733L4.63867 5.62012ZM8.40723 4.3916L8.10439 3.43856L8.1018 3.43939L8.40723 4.3916ZM12.1426 3.3291L12.389 4.2983L12.3967 4.29628L12.1426 3.3291ZM15.8945 2.51562L16.0589 3.50202L16.0609 3.5017L15.8945 2.51562ZM21.8711 2.41602L22.0589 1.43372L22.0461 1.43145L21.8711 2.41602ZM23.9961 3.11328L23.5609 4.01365L23.5667 4.01642L23.9961 3.11328ZM25.7891 4.4082L25.0674 5.10043L25.0746 5.10795L25.082 5.11531L25.7891 4.4082ZM27.084 6.30078L27.9978 5.89463L27.9944 5.88698L27.084 6.30078ZM25.2412 11.8291L24.4412 11.2291L24.4389 11.2322L25.2412 11.8291ZM21.1572 16.5771L20.4559 15.8643L20.453 15.8672L21.1572 16.5771ZM18.1025 19.4824L17.4467 18.7276L16.9664 19.1449L17.1409 19.7567L18.1025 19.4824ZM21.0908 29.958L21.6759 30.769L22.245 30.3585L22.0525 29.6837L21.0908 29.958ZM16.7412 33.0957L15.7974 33.4261L16.24 34.6903L17.3262 33.9067L16.7412 33.0957ZM9.12109 11.3311L10.0649 11.0006L9.8305 10.3311H9.12109V11.3311ZM8.05859 12.4766L7.31649 11.8063L7.3153 11.8076L8.05859 12.4766ZM7.49414 13.0908V14.0908H7.90835L8.20125 13.7979L7.49414 13.0908ZM7.16211 12.377L6.22489 12.7257L6.22842 12.7352L6.23215 12.7446L7.16211 12.377ZM6.43164 10.4014L5.48797 10.7323L5.49058 10.7397L5.4933 10.7471L6.43164 10.4014ZM5.41895 7.5791L6.35816 7.23573L6.35609 7.23016L5.41895 7.5791ZM15.3799 10.2354L14.787 9.43007L14.2318 9.83887L14.4164 10.5032L15.3799 10.2354ZM16.7412 15.1328L15.7777 15.4006L16.2409 17.0669L17.454 15.8342L16.7412 15.1328ZM20.5596 9.28906L20.3426 10.2652L20.3589 10.2689L20.3753 10.2719L20.5596 9.28906ZM4.95254 6.56958C6.28932 6.12767 7.54266 5.7191 8.71265 5.34382L8.1018 3.43939C6.92543 3.81671 5.66641 4.22714 4.3248 4.67065L4.95254 6.56958ZM8.71006 5.34464C9.87418 4.97474 11.1004 4.62588 12.389 4.29827L11.8962 2.35993C10.5728 2.69639 9.30877 3.05586 8.10439 3.43856L8.71006 5.34464ZM12.3967 4.29628C13.6764 3.96009 14.897 3.69568 16.0589 3.50202L15.7301 1.52923C14.5015 1.73401 13.2208 2.01191 11.8885 2.36192L12.3967 4.29628ZM16.0609 3.5017C16.9227 3.35632 17.8078 3.2832 18.7168 3.2832V1.2832C17.7 1.2832 16.7036 1.36503 15.7282 1.52955L16.0609 3.5017ZM18.7168 3.2832C20.3403 3.2832 21.3005 3.33026 21.6961 3.40058L22.0461 1.43145C21.4456 1.32469 20.3029 1.2832 18.7168 1.2832V3.2832ZM21.6833 3.39823C22.3536 3.52637 22.9784 3.73208 23.5609 4.01363L24.4313 2.21293C23.6857 1.85256 22.8938 1.59343 22.0589 1.4338L21.6833 3.39823ZM23.5667 4.01642C24.1319 4.28508 24.6306 4.64507 25.0674 5.10043L26.5107 3.71598C25.9072 3.0867 25.2106 2.58341 24.4255 2.21015L23.5667 4.01642ZM25.082 5.11531C25.5228 5.55615 25.8878 6.0858 26.1736 6.71458L27.9944 5.88698C27.6161 5.05482 27.1178 4.32276 26.4962 3.7011L25.082 5.11531ZM26.1702 6.70692C26.2453 6.87588 26.2832 7.05275 26.2832 7.24707H28.2832C28.2832 6.77733 28.1883 6.32333 27.9978 5.89464L26.1702 6.70692ZM26.2832 7.24707C26.2832 8.15351 25.7668 9.46165 24.4412 11.2291L26.0412 12.4291C27.4383 10.5663 28.2832 8.8198 28.2832 7.24707H26.2832ZM24.4389 11.2322C23.1141 13.0131 21.786 14.5556 20.4559 15.8643L21.8586 17.29C23.2732 15.8981 24.6678 14.2753 26.0436 12.426L24.4389 11.2322ZM20.453 15.8672C19.0939 17.2153 18.0953 18.164 17.4467 18.7276L18.7584 20.2373C19.46 19.6277 20.4979 18.6396 21.8614 17.2871L20.453 15.8672ZM17.1409 19.7567L20.1292 30.2323L22.0525 29.6837L19.0642 19.2081L17.1409 19.7567ZM20.5058 29.147L16.1562 32.2847L17.3262 33.9067L21.6759 30.769L20.5058 29.147ZM17.685 32.7653L10.0649 11.0006L8.17727 11.6615L15.7974 33.4261L17.685 32.7653ZM9.12109 10.3311C8.93834 10.3311 8.80074 10.3811 8.74118 10.4052C8.67118 10.4335 8.61773 10.4641 8.58634 10.4834C8.5239 10.5217 8.4764 10.5597 8.45205 10.5798C8.39975 10.623 8.35254 10.6688 8.31853 10.7028C8.24602 10.7753 8.158 10.8706 8.06042 10.9797L9.55091 12.3133C9.64148 12.2121 9.70011 12.1497 9.73274 12.117C9.7513 12.0985 9.74629 12.1048 9.72581 12.1217C9.71736 12.1287 9.68319 12.1569 9.63146 12.1886C9.60544 12.2045 9.5567 12.2327 9.49076 12.2594C9.45667 12.2732 9.40984 12.2899 9.35261 12.3036C9.29636 12.3172 9.21695 12.3311 9.12109 12.3311V10.3311ZM8.06042 10.9797C7.87376 11.1883 7.62591 11.4637 7.31649 11.8063L8.8007 13.1468C9.11107 12.8032 9.36127 12.5252 9.55091 12.3133L8.06042 10.9797ZM7.3153 11.8076C7.00967 12.1472 6.84164 12.3291 6.78703 12.3837L8.20125 13.7979C8.30159 13.6976 8.50986 13.47 8.80189 13.1455L7.3153 11.8076ZM7.49414 12.0908C7.78194 12.0908 7.98073 12.2135 8.05691 12.2663C8.14495 12.3274 8.202 12.3887 8.22739 12.4175C8.27941 12.4763 8.30777 12.5244 8.31044 12.5288C8.32093 12.5461 8.31621 12.5406 8.29295 12.4906C8.25036 12.3991 8.18433 12.2427 8.09207 12.0093L6.23215 12.7446C6.32804 12.9872 6.41142 13.1877 6.47951 13.3341C6.51159 13.4031 6.55252 13.4868 6.59898 13.5636C6.61964 13.5978 6.66357 13.6681 6.72873 13.7419C6.76068 13.778 6.8237 13.845 6.91711 13.9097C6.99865 13.9663 7.20219 14.0908 7.49414 14.0908V12.0908ZM8.09933 12.0282C7.9228 11.5538 7.67974 10.8964 7.36998 10.0557L5.4933 10.7471C5.80333 11.5886 6.04725 12.2483 6.22489 12.7257L8.09933 12.0282ZM7.37531 10.0705C7.07475 9.21333 6.73566 8.26834 6.35815 7.23574L4.47974 7.92247C4.85484 8.94846 5.19087 9.88498 5.48797 10.7323L7.37531 10.0705ZM6.35609 7.23016C5.97486 6.20629 5.69506 5.49682 5.5331 5.1729L3.74424 6.06733C3.84791 6.27466 4.08829 6.87119 4.4818 7.92804L6.35609 7.23016ZM14.4164 10.5032L15.7777 15.4006L17.7047 14.865L16.3434 9.96754L14.4164 10.5032ZM17.454 15.8342C18.1654 15.1113 19.036 14.138 20.062 12.9223L18.5337 11.6323C17.5232 12.8295 16.6894 13.7598 16.0285 14.4314L17.454 15.8342ZM20.062 12.9223C20.5903 12.2965 21.0124 11.7269 21.3075 11.22C21.5861 10.7417 21.8252 10.1976 21.8252 9.6543H19.8252C19.8252 9.65336 19.8098 9.81759 19.5792 10.2136C19.3652 10.5811 19.0237 11.0518 18.5337 11.6323L20.062 12.9223ZM21.8252 9.6543C21.8252 9.41944 21.7768 9.10482 21.5675 8.8171C21.3444 8.51033 21.0309 8.36 20.7439 8.30619L20.3753 10.2719C20.2654 10.2513 20.0846 10.1785 19.9501 9.99345C19.8293 9.82747 19.8252 9.67887 19.8252 9.6543H21.8252ZM20.7765 8.31288C20.2106 8.18712 19.6454 8.12305 19.082 8.12305V10.123C19.4927 10.123 19.9124 10.1696 20.3426 10.2652L20.7765 8.31288ZM19.082 8.12305C17.4449 8.12305 15.9936 8.54169 14.787 9.43007L15.9728 11.0406C16.7805 10.4459 17.7973 10.123 19.082 10.123V8.12305ZM39.751 14.0205L39.2729 14.8988L39.2791 14.9022L39.751 14.0205ZM41.6602 15.7305L40.832 16.291L40.837 16.2984L40.8421 16.3056L41.6602 15.7305ZM42.7393 18.1377L41.7684 18.3774L41.7702 18.3845L41.772 18.3916L42.7393 18.1377ZM42.8887 23.2178L41.9043 23.0415L41.9031 23.0486L41.9019 23.0558L42.8887 23.2178ZM41.5938 26.8369L40.7716 26.2677L40.7673 26.2739L40.7631 26.2802L41.5938 26.8369ZM36.9121 31.3525L37.3918 32.23L37.4007 32.225L36.9121 31.3525ZM34.4385 32.3486L34.1898 31.38L34.182 31.382L34.1742 31.3842L34.4385 32.3486ZM29.3418 32.2324L29.6727 31.2887L29.6655 31.2863L29.3418 32.2324ZM27.1836 31.0869L26.5443 31.8558L26.5524 31.8626L26.5607 31.8692L27.1836 31.0869ZM24.876 27.7832L23.9465 28.1521L23.9475 28.1546L24.876 27.7832ZM26.3535 16.9092L27.0824 17.5938L27.0832 17.5929L26.3535 16.9092ZM30.4375 13.7383L30.8875 14.6313L30.8931 14.6285L30.4375 13.7383ZM37.2441 12.9912L36.9765 13.9548L36.989 13.9581L37.2441 12.9912ZM38.7715 16.8096L39.733 16.5348L37.7956 16.5913L38.7715 16.8096ZM37.543 19.0342L36.8297 18.3332L36.8236 18.3396L37.543 19.0342ZM34.9199 19.7646L34.2952 20.5455L34.3291 20.5726L34.3652 20.5967L34.9199 19.7646ZM34.9199 16.8594L34.0964 16.2921L34.0921 16.2983L34.0879 16.3047L34.9199 16.8594ZM36.5303 15.6807L36.8968 16.6111L36.5303 14.6807V15.6807ZM34.4053 16.0957L34.0313 15.1682L34.0261 15.1704L34.4053 16.0957ZM32.6621 17.1748L33.3255 17.9232L33.3348 17.9147L32.6621 17.1748ZM31.4834 18.6523L30.6035 18.1772L30.6 18.1836L31.4834 18.6523ZM32.4795 22.7529L31.9407 23.5954L31.9419 23.5962L32.4795 22.7529ZM37.0947 22.8193L37.7444 23.5796L37.7523 23.5728L37.0947 22.8193ZM38.4893 20.7939L39.4203 21.1588L39.422 21.1546L38.4893 20.7939ZM39.2791 14.9022C39.9257 15.2483 40.4384 15.7096 40.832 16.291L42.4883 15.1699C41.9079 14.3126 41.1478 13.6339 40.2229 13.1388L39.2791 14.9022ZM40.8421 16.3056C41.2643 16.906 41.5748 17.5932 41.7684 18.3774L43.7101 17.898C43.461 16.8892 43.0521 15.9716 42.4782 15.1553L40.8421 16.3056ZM41.772 18.3916C41.9816 19.1899 42.0879 20.0285 42.0879 20.9102H44.0879C44.0879 19.866 43.9618 18.8563 43.7065 17.8838L41.772 18.3916ZM42.0879 20.9102C42.0879 21.6513 42.0261 22.3614 41.9043 23.0415L43.873 23.3941C44.0168 22.5911 44.0879 21.7628 44.0879 20.9102H42.0879ZM41.9019 23.0558C41.7885 23.7461 41.6308 24.3676 41.4323 24.9234L43.3158 25.5961C43.56 24.9124 43.7453 24.1725 43.8755 23.3798L41.9019 23.0558ZM41.4323 24.9234C41.2333 25.4806 41.0098 25.9236 40.7716 26.2677L42.4159 27.4061C42.7754 26.8869 43.072 26.2785 43.3158 25.5961L41.4323 24.9234ZM40.7631 26.2802C40.1016 27.2672 39.4015 28.1046 38.6659 28.7994L40.0392 30.2534C40.8973 29.4429 41.6914 28.4874 42.4244 27.3937L40.7631 26.2802ZM38.6659 28.7994C37.92 29.5039 37.172 30.0609 36.4235 30.48L37.4007 32.225C38.3124 31.7145 39.1914 31.0541 40.0392 30.2534L38.6659 28.7994ZM36.4324 30.4751C35.6668 30.8937 34.9194 31.1927 34.1898 31.38L34.6872 33.3172C35.5955 33.084 36.4973 32.719 37.3918 32.23L36.4324 30.4751ZM34.1742 31.3842C33.448 31.5832 32.7344 31.6807 32.0312 31.6807V33.6807C32.9219 33.6807 33.8131 33.5568 34.7027 33.3131L34.1742 31.3842ZM32.0312 31.6807C31.1984 31.6807 30.4142 31.5488 29.6727 31.2888L29.0109 33.1761C29.9738 33.5137 30.9826 33.6807 32.0312 33.6807V31.6807ZM29.6655 31.2863C28.9153 31.0296 28.3012 30.6986 27.8065 30.3046L26.5607 31.8692C27.2613 32.4271 28.086 32.8597 29.0181 33.1786L29.6655 31.2863ZM27.8229 30.318C26.9853 29.6215 26.3062 28.6661 25.8045 27.4118L23.9475 28.1546C24.5526 29.6672 25.4118 30.9143 26.5443 31.8558L27.8229 30.318ZM25.8055 27.4144C25.3002 26.1411 25.0459 24.7946 25.0459 23.3672H23.0459C23.0459 25.0387 23.345 26.6363 23.9465 28.152L25.8055 27.4144ZM25.0459 23.3672C25.0459 20.9037 25.75 19.0125 27.0824 17.5938L25.6246 16.2246C23.8802 18.0819 23.0459 20.4961 23.0459 23.3672H25.0459ZM27.0832 17.5929C28.3374 16.2544 29.6072 15.2765 30.8875 14.6313L29.9875 12.8453C28.4566 13.6167 27.0037 14.7527 25.6238 16.2254L27.0832 17.5929ZM30.8931 14.6285C32.1682 13.9759 33.4517 13.6592 34.7539 13.6592V11.6592C33.1121 11.6592 31.518 12.0619 29.9819 12.8481L30.8931 14.6285ZM34.7539 13.6592C35.5307 13.6592 36.2705 13.7586 36.9765 13.9547L37.5118 12.0277C36.624 11.7811 35.7037 11.6592 34.7539 11.6592V13.6592ZM36.989 13.9581C37.6942 14.1442 38.455 14.4536 39.2729 14.8988L40.229 13.1422C39.2983 12.6356 38.3878 12.2588 37.4993 12.0243L36.989 13.9581ZM37.7956 16.5913C37.6501 17.2419 37.3358 17.8183 36.8297 18.3332L38.2562 19.7351C39.0119 18.9662 39.5166 18.0595 39.7474 17.0279L37.7956 16.5913ZM36.8236 18.3396C36.2997 18.8821 35.9339 18.9971 35.7168 18.9971V20.9971C36.695 20.9971 37.5466 20.4701 38.2624 19.7288L36.8236 18.3396ZM35.7168 18.9971C35.6009 18.9971 35.5311 18.9703 35.4746 18.9326L34.3652 20.5967C34.7735 20.8689 35.235 20.9971 35.7168 20.9971V18.9971ZM35.5446 18.9838C35.5423 18.9819 35.5367 18.9772 35.5283 18.9647C35.5192 18.9515 35.5042 18.9256 35.4881 18.8805C35.4544 18.7861 35.4219 18.6246 35.4219 18.3701H33.4219C33.4219 19.166 33.6181 20.0039 34.2952 20.5455L35.5446 18.9838ZM35.4219 18.3701C35.4219 18.0911 35.5098 17.7773 35.752 17.4141L34.0879 16.3047C33.666 16.9375 33.4219 17.6309 33.4219 18.3701H35.4219ZM35.7434 17.4267C35.9444 17.1349 36.2967 16.8475 36.8968 16.6111L36.1637 14.7503C35.3029 15.0894 34.5816 15.5878 34.0964 16.2921L35.7434 17.4267ZM36.5303 14.6807C35.67 14.6807 34.8348 14.8443 34.0313 15.1683L34.7792 17.0231C35.3482 16.7937 35.9296 16.6807 36.5303 16.6807V14.6807ZM34.0261 15.1704C33.2547 15.4865 32.5715 15.9057 31.9894 16.4349L33.3348 17.9147C33.7266 17.5585 34.2056 17.2583 34.7845 17.021L34.0261 15.1704ZM31.9988 16.4265C31.4273 16.933 30.9599 17.5172 30.6035 18.1772L32.3633 19.1275C32.6046 18.6807 32.923 18.2798 33.3254 17.9232L31.9988 16.4265ZM30.6 18.1836C30.2442 18.8542 30.0518 19.5618 30.0518 20.2959H32.0518C32.0518 19.9232 32.1471 19.5351 32.3667 19.1211L30.6 18.1836ZM30.0518 20.2959C30.0518 21.7041 30.7349 22.8242 31.9407 23.5954L33.0183 21.9105C32.3204 21.4642 32.0518 20.9463 32.0518 20.2959H30.0518ZM31.9419 23.5962C32.938 24.2311 33.9639 24.5996 35.0029 24.5996V22.5996C34.4482 22.5996 33.7919 22.4036 33.017 21.9097L31.9419 23.5962ZM35.0029 24.5996C36.0318 24.5996 36.9583 24.2513 37.7444 23.5796L36.4451 22.0591C36.0137 22.4278 35.5456 22.5996 35.0029 22.5996V24.5996ZM37.7523 23.5728C38.4926 22.9267 39.046 22.1139 39.4203 21.1588L37.5582 20.4291C37.2906 21.112 36.9143 21.6495 36.4372 22.0659L37.7523 23.5728ZM39.422 21.1546C39.7829 20.2212 39.9707 19.2801 39.9707 18.3369H37.9707C37.9707 19.0096 37.8376 19.7066 37.5566 20.4333L39.422 21.1546ZM39.9707 18.3369C39.9707 17.7038 39.8947 17.1009 39.733 16.5348L37.81 17.0843C37.9139 17.448 37.9707 17.8633 37.9707 18.3369H39.9707ZM40.332 4.25879L39.9454 3.33657L39.4551 3.54212L39.3513 4.06344L40.332 4.25879ZM48.7656 0.722656L49.7636 0.658718L49.6738 -0.742481L48.3789 -0.199559L48.7656 0.722656ZM49.9941 19.8975L48.9962 19.9614L49.0966 21.5294L50.4746 20.7745L49.9941 19.8975ZM56.9336 16.0957L57.0817 15.1067L56.7486 15.0568L56.4531 15.2187L56.9336 16.0957ZM64.1387 17.1748L64.7472 17.9684L66.6168 16.5348L64.2868 16.1858L64.1387 17.1748ZM54.7422 24.3799L54.1337 23.5863L53.0902 24.3865L54.14 25.1783L54.7422 24.3799ZM63.5908 31.0537L64.589 30.994L64.5615 30.5333L64.193 30.2553L63.5908 31.0537ZM63.9893 37.7109L63.4056 38.5229L65.1131 39.7503L64.9875 37.6512L63.9893 37.7109ZM50.9404 28.3311L51.5241 27.5191L49.836 26.3056L49.9417 28.3819L50.9404 28.3311ZM51.3555 36.4824L51.3744 37.4822L52.4067 37.4627L52.3542 36.4316L51.3555 36.4824ZM43.4531 36.6318L42.4545 36.6836L42.5045 37.65L43.472 37.6317L43.4531 36.6318ZM41.959 7.79492L42.9576 7.74318L42.8963 6.55961L41.7399 6.81921L41.959 7.79492ZM39.5186 8.34277L38.5378 8.14742L38.2375 9.65525L39.7376 9.31849L39.5186 8.34277ZM40.7187 5.181L49.1523 1.64487L48.3789 -0.199559L39.9454 3.33657L40.7187 5.181ZM47.7677 0.786594L48.9962 19.9614L50.9921 19.8335L49.7636 0.658718L47.7677 0.786594ZM50.4746 20.7745L57.4141 16.9727L56.4531 15.2187L49.5137 19.0204L50.4746 20.7745ZM56.7855 17.0847L63.9906 18.1638L64.2868 16.1858L57.0817 15.1067L56.7855 17.0847ZM63.5302 16.3812L54.1337 23.5863L55.3507 25.1734L64.7472 17.9684L63.5302 16.3812ZM54.14 25.1783L62.9887 31.8521L64.193 30.2553L55.3443 23.5815L54.14 25.1783ZM62.5926 31.1135L62.991 37.7707L64.9875 37.6512L64.589 30.994L62.5926 31.1135ZM64.5729 36.899L51.5241 27.5191L50.3568 29.143L63.4056 38.5229L64.5729 36.899ZM49.9417 28.3819L50.3568 36.5333L52.3542 36.4316L51.9391 28.2802L49.9417 28.3819ZM51.3366 35.4826L43.4342 35.632L43.472 37.6317L51.3744 37.4822L51.3366 35.4826ZM44.4518 36.5801L42.9576 7.74318L40.9603 7.84667L42.4545 36.6836L44.4518 36.5801ZM41.7399 6.81921L39.2995 7.36706L39.7376 9.31849L42.178 8.77064L41.7399 6.81921ZM40.4993 8.53812L41.3128 4.45414L39.3513 4.06344L38.5378 8.14742L40.4993 8.53812ZM75.6934 22.8193L76.4635 22.1815L75.5377 21.0636L74.823 22.3269L75.6934 22.8193ZM79.6943 27.6504L80.6396 27.9767L80.823 27.4454L80.4645 27.0126L79.6943 27.6504ZM77.4033 30.207L76.8629 29.3656L76.8594 29.3679L77.4033 30.207ZM73.1201 32.0332L72.8624 31.0669L72.8548 31.069L73.1201 32.0332ZM64.2549 32.1328L63.9331 33.0796L63.9359 33.0806L64.2549 32.1328ZM61.6152 30.373L62.4004 29.7538L62.398 29.7507L61.6152 30.373ZM60.9014 20.2959L59.9656 19.9434L59.9642 19.9469L60.9014 20.2959ZM62.8271 16.9092L62.1402 16.1824L62.1381 16.1845L62.8271 16.9092ZM65.4502 15L64.9785 14.1182L64.9742 14.1205L65.4502 15ZM68.4053 13.8545L68.1627 12.8843L68.4053 13.8545ZM75.5439 14.1533L75.2055 15.0944L75.2154 15.0978L75.5439 14.1533ZM78.8809 16.0957L79.6473 16.7381L80.269 15.9963L79.5479 15.3507L78.8809 16.0957ZM69.7666 26.9697L69.0002 26.3274L67.6236 27.9697H69.7666V26.9697ZM72.0576 26.4717L72.4767 27.3797L72.4828 27.3768L72.0576 26.4717ZM74.0664 25.0273L74.7799 25.7281L74.786 25.7217L74.0664 25.0273ZM71.0947 18.9512L71.8726 19.5796L72.6473 18.6207L71.5492 18.0604L71.0947 18.9512ZM67.6914 18.9014L67.2953 17.9831L67.2887 17.9861L67.6914 18.9014ZM66.5127 19.7646L67.3031 20.3772L67.318 20.358L67.3319 20.3381L66.5127 19.7646ZM65.5996 23.7988L64.6227 24.0125L65.5996 23.7988ZM65.998 25.2598L65.0412 25.5502L65.5895 27.3567L66.7759 25.8882L65.998 25.2598ZM74.9232 23.4572L78.9242 28.2882L80.4645 27.0126L76.4635 22.1815L74.9232 23.4572ZM78.7491 27.3241C78.5283 27.9635 77.964 28.6585 76.863 29.3656L77.9437 31.0485C79.2554 30.2061 80.2184 29.1967 80.6396 27.9767L78.7491 27.3241ZM76.8594 29.3679C75.7683 30.0751 74.4413 30.6459 72.8625 31.067L73.3778 32.9994C75.1192 32.5351 76.6478 31.8884 77.9472 31.0462L76.8594 29.3679ZM72.8548 31.069C71.2889 31.4999 69.729 31.7139 68.1729 31.7139V33.7139C69.9149 33.7139 71.6531 33.474 73.3854 32.9974L72.8548 31.069ZM68.1729 31.7139C66.799 31.7139 65.6037 31.5316 64.5738 31.185L63.9359 33.0806C65.2082 33.5087 66.6248 33.7139 68.1729 33.7139V31.7139ZM64.5766 31.186C63.582 30.848 62.8782 30.3595 62.4004 29.7538L60.8301 30.9923C61.5919 31.9582 62.6478 32.6429 63.9331 33.0796L64.5766 31.186ZM62.398 29.7507C61.4939 28.6136 61.0049 27.1212 61.0049 25.1934H59.0049C59.0049 27.4712 59.5895 29.432 60.8325 30.9954L62.398 29.7507ZM61.0049 25.1934C61.0049 23.6561 61.2811 22.1416 61.8385 20.6449L59.9642 19.9469C59.3263 21.6598 59.0049 23.4103 59.0049 25.1934H61.0049ZM61.8372 20.6484C62.4306 19.073 63.008 18.1171 63.5162 17.6339L62.1381 16.1845C61.2961 16.9851 60.5895 18.287 59.9656 19.9434L61.8372 20.6484ZM63.5141 17.6359C64.2611 16.9298 65.065 16.3455 65.9261 15.8795L64.9742 14.1205C63.9538 14.6727 63.009 15.3612 62.1402 16.1824L63.5141 17.6359ZM65.9218 15.8818C66.8033 15.4103 67.7115 15.0587 68.6478 14.8246L68.1627 12.8843C67.0626 13.1594 66.0007 13.5715 64.9785 14.1182L65.9218 15.8818ZM68.6478 14.8246C69.5849 14.5904 70.5493 14.4727 71.543 14.4727V12.4727C70.3895 12.4727 69.2621 12.6095 68.1627 12.8843L68.6478 14.8246ZM71.543 14.4727C72.8388 14.4727 74.0575 14.6814 75.2055 15.0943L75.8824 13.2123C74.5069 12.7176 73.0583 12.4727 71.543 12.4727V14.4727ZM75.2154 15.0978C76.3702 15.4995 77.3659 16.0815 78.2138 16.8407L79.5479 15.3507C78.4922 14.4055 77.2632 13.6926 75.8725 13.2088L75.2154 15.0978ZM78.1145 15.4533L69.0002 26.3274L70.533 27.6121L79.6473 16.7381L78.1145 15.4533ZM69.7666 27.9697C70.7163 27.9697 71.6232 27.7735 72.4767 27.3796L71.6386 25.5637C71.0532 25.8339 70.4328 25.9697 69.7666 25.9697V27.9697ZM72.4828 27.3768C73.3287 26.9795 74.0943 26.4261 74.7799 25.7281L73.353 24.3266C72.821 24.8682 72.2475 25.2777 71.6325 25.5666L72.4828 27.3768ZM74.786 25.7217C75.4589 25.0243 76.0505 24.2189 76.5637 23.3118L74.823 22.3269C74.3844 23.1021 73.8913 23.7686 73.3468 24.333L74.786 25.7217ZM71.5492 18.0604C70.8775 17.7177 70.1692 17.5361 69.4346 17.5361V19.5361C69.8288 19.5361 70.2274 19.6313 70.6403 19.8419L71.5492 18.0604ZM69.4346 17.5361C68.6968 17.5361 67.9812 17.6873 67.2953 17.9832L68.0875 19.8196C68.5305 19.6285 68.9771 19.5361 69.4346 19.5361V17.5361ZM67.2887 17.9861C66.6445 18.2695 66.0703 18.6529 65.6935 19.1912L67.3319 20.3381C67.42 20.2123 67.6315 20.0202 68.0941 19.8167L67.2887 17.9861ZM65.7223 19.1521C64.9081 20.2026 64.4834 21.3897 64.4834 22.6865H66.4834C66.4834 21.8584 66.7449 21.0975 67.3031 20.3772L65.7223 19.1521ZM64.4834 22.6865C64.4834 23.1409 64.5289 23.5836 64.6227 24.0125L66.5765 23.5851C66.5154 23.3058 66.4834 23.0069 66.4834 22.6865H64.4834ZM64.6227 24.0125C64.7086 24.4051 64.8503 24.9215 65.0412 25.5502L66.9549 24.9693C66.7695 24.3585 66.6456 23.9009 66.5765 23.5851L64.6227 24.0125ZM66.7759 25.8882L71.8726 19.5796L70.3169 18.3227L65.2202 24.6313L66.7759 25.8882ZM86.3682 35.1211L86.4235 36.1196L87.4114 36.0648L87.3672 35.0764L86.3682 35.1211ZM78.8809 35.5361L77.8811 35.5585L77.9042 36.5918L78.9362 36.5346L78.8809 35.5361ZM78.4824 17.7227L79.4822 17.7003L79.4549 16.4813L78.2648 16.7466L78.4824 17.7227ZM76.0254 18.2705L75.0447 18.0752L74.7448 19.5806L76.243 19.2465L76.0254 18.2705ZM76.8389 14.1865L76.4522 13.2643L75.962 13.4699L75.8581 13.9912L76.8389 14.1865ZM85.2725 10.6504L86.2715 10.6057L86.2074 9.17405L84.8858 9.72818L85.2725 10.6504ZM80.9229 0.589844V-0.410156H80.878L80.8333 -0.406141L80.9229 0.589844ZM82.9482 0.988281L82.5224 1.8931L82.533 1.89808L82.5437 1.90282L82.9482 0.988281ZM84.3594 1.93457L83.6418 2.63105L83.647 2.6364L83.6523 2.64168L84.3594 1.93457ZM85.1064 2.89746L86.0203 2.49132L86.0143 2.47794L86.008 2.46473L85.1064 2.89746ZM84.957 5.53711L85.879 5.92435L85.8817 5.91786L84.957 5.53711ZM83.1641 7.66211L83.3161 8.65048L83.3488 8.64546L83.381 8.6383L83.1641 7.66211ZM78.0674 4.59082H77.0674V4.64994L77.0743 4.70864L78.0674 4.59082ZM78.748 1.95117L77.8783 1.45754L77.8733 1.46653L78.748 1.95117ZM86.3128 34.1226L78.8255 34.5377L78.9362 36.5346L86.4235 36.1196L86.3128 34.1226ZM79.8806 35.5138L79.4822 17.7003L77.4827 17.745L77.8811 35.5585L79.8806 35.5138ZM78.2648 16.7466L75.8078 17.2945L76.243 19.2465L78.7001 18.6987L78.2648 16.7466ZM77.0061 18.4659L77.8196 14.3819L75.8581 13.9912L75.0447 18.0752L77.0061 18.4659ZM77.2255 15.1087L85.6591 11.5726L84.8858 9.72818L76.4522 13.2643L77.2255 15.1087ZM84.2735 10.6951L85.3692 35.1658L87.3672 35.0764L86.2715 10.6057L84.2735 10.6951ZM80.9229 1.58984C81.5985 1.58984 82.1211 1.70424 82.5224 1.8931L83.374 0.0834625C82.6465 -0.258923 81.8188 -0.410156 80.9229 -0.410156V1.58984ZM82.5437 1.90282C83.0248 2.1156 83.3819 2.36329 83.6418 2.63105L85.077 1.23809C84.6064 0.753251 84.0227 0.370076 83.3527 0.0737459L82.5437 1.90282ZM83.6523 2.64168C83.9844 2.97385 84.1431 3.20144 84.2049 3.33019L86.008 2.46473C85.8041 2.0401 85.4648 1.62576 85.0665 1.22746L83.6523 2.64168ZM84.1926 3.3036C84.264 3.46424 84.3057 3.65094 84.3057 3.87695H86.3057C86.3057 3.39463 86.2145 2.92834 86.0203 2.49132L84.1926 3.3036ZM84.3057 3.87695C84.3057 4.27324 84.2213 4.69756 84.0324 5.15636L85.8817 5.91786C86.1576 5.24775 86.3057 4.56531 86.3057 3.87695H84.3057ZM84.035 5.14988C83.8351 5.62584 83.6016 6.01333 83.3421 6.32466L84.8786 7.60503C85.2832 7.11948 85.6141 6.55515 85.879 5.92434L84.035 5.14988ZM83.3421 6.32466C83.2121 6.4807 83.1075 6.57694 83.0316 6.63293C82.9558 6.68876 82.9282 6.69013 82.9471 6.68592L83.381 8.6383C84.0006 8.50061 84.4941 8.0664 84.8786 7.60503L83.3421 6.32466ZM83.012 6.67374C82.4468 6.76069 82.0772 6.79492 81.8691 6.79492V8.79492C82.2366 8.79492 82.7303 8.74061 83.3161 8.65048L83.012 6.67374ZM81.8691 6.79492C81.254 6.79492 80.7683 6.68784 80.3849 6.50785L79.5351 8.31832C80.2362 8.64745 81.0234 8.79492 81.8691 8.79492V6.79492ZM80.3849 6.50785C80.0045 6.32933 79.7167 6.07929 79.5 5.75047L77.8301 6.85109C78.2553 7.49623 78.8307 7.98773 79.5351 8.31832L80.3849 6.50785ZM79.5 5.75047C79.275 5.40912 79.1219 4.99136 79.0604 4.473L77.0743 4.70864C77.1678 5.49627 77.4131 6.21848 77.8301 6.85109L79.5 5.75047ZM79.0674 4.59082C79.0674 3.81878 79.2516 3.10577 79.6228 2.43581L77.8733 1.46653C77.337 2.43459 77.0674 3.48135 77.0674 4.59082H79.0674ZM79.6177 2.44478C79.9113 1.92762 80.3346 1.64675 81.0124 1.58583L80.8333 -0.406141C79.541 -0.289981 78.5145 0.336698 77.8784 1.45757L79.6177 2.44478ZM100.944 14.0205L100.466 14.8988L100.472 14.9022L100.944 14.0205ZM102.854 15.7305L102.025 16.291L102.03 16.2984L102.035 16.3056L102.854 15.7305ZM103.933 18.1377L102.962 18.3774L102.964 18.3845L102.965 18.3916L103.933 18.1377ZM104.082 23.2178L103.098 23.0415L103.096 23.0486L103.095 23.0558L104.082 23.2178ZM102.787 26.8369L101.965 26.2677L101.961 26.2739L101.956 26.2802L102.787 26.8369ZM98.1055 31.3525L98.5852 32.23L98.5941 32.225L98.1055 31.3525ZM95.6318 32.3486L95.3831 31.38L95.3754 31.382L95.3676 31.3842L95.6318 32.3486ZM90.5352 32.2324L90.8661 31.2887L90.8588 31.2863L90.5352 32.2324ZM88.377 31.0869L87.7376 31.8558L87.7458 31.8626L87.754 31.8692L88.377 31.0869ZM86.0693 27.7832L85.1398 28.1521L85.1409 28.1546L86.0693 27.7832ZM87.5469 16.9092L88.2758 17.5938L88.2766 17.5929L87.5469 16.9092ZM91.6309 13.7383L92.0809 14.6313L92.0865 14.6285L91.6309 13.7383ZM98.4375 12.9912L98.1698 13.9548L98.1823 13.9581L98.4375 12.9912ZM99.9648 16.8096L100.926 16.5348L98.989 16.5913L99.9648 16.8096ZM98.7363 19.0342L98.0231 18.3332L98.0169 18.3396L98.7363 19.0342ZM96.1133 19.7646L95.4886 20.5455L95.5225 20.5726L95.5586 20.5967L96.1133 19.7646ZM96.1133 16.8594L95.2898 16.2921L95.2855 16.2983L95.2812 16.3047L96.1133 16.8594ZM97.7236 15.6807L98.0902 16.6111L97.7236 14.6807V15.6807ZM95.5986 16.0957L95.2247 15.1682L95.2194 15.1704L95.5986 16.0957ZM93.8555 17.1748L94.5188 17.9232L94.5281 17.9147L93.8555 17.1748ZM92.6768 18.6523L91.7968 18.1772L91.7934 18.1836L92.6768 18.6523ZM93.6729 22.7529L93.1341 23.5954L93.1353 23.5962L93.6729 22.7529ZM98.2881 22.8193L98.9378 23.5796L98.9456 23.5728L98.2881 22.8193ZM99.6826 20.7939L100.614 21.1588L100.615 21.1546L99.6826 20.7939ZM100.472 14.9022C101.119 15.2483 101.632 15.7096 102.025 16.291L103.682 15.1699C103.101 14.3126 102.341 13.6339 101.416 13.1388L100.472 14.9022ZM102.035 16.3056C102.458 16.906 102.768 17.5932 102.962 18.3774L104.903 17.898C104.654 16.8892 104.246 15.9716 103.672 15.1553L102.035 16.3056ZM102.965 18.3916C103.175 19.1899 103.281 20.0285 103.281 20.9102H105.281C105.281 19.866 105.155 18.8563 104.9 17.8838L102.965 18.3916ZM103.281 20.9102C103.281 21.6513 103.22 22.3614 103.098 23.0415L105.066 23.3941C105.21 22.5911 105.281 21.7628 105.281 20.9102H103.281ZM103.095 23.0558C102.982 23.7461 102.824 24.3676 102.626 24.9234L104.509 25.5961C104.753 24.9124 104.939 24.1725 105.069 23.3798L103.095 23.0558ZM102.626 24.9234C102.427 25.4806 102.203 25.9236 101.965 26.2677L103.609 27.4061C103.969 26.8869 104.265 26.2785 104.509 25.5961L102.626 24.9234ZM101.956 26.2802C101.295 27.2672 100.595 28.1046 99.8593 28.7994L101.233 30.2534C102.091 29.4429 102.885 28.4874 103.618 27.3937L101.956 26.2802ZM99.8593 28.7994C99.1133 29.5039 98.3653 30.0609 97.6169 30.48L98.5941 32.225C99.5058 31.7145 100.385 31.0541 101.233 30.2534L99.8593 28.7994ZM97.6258 30.4751C96.8601 30.8937 96.1128 31.1927 95.3831 31.38L95.8805 33.3172C96.7889 33.084 97.6907 32.719 98.5851 32.23L97.6258 30.4751ZM95.3676 31.3842C94.6413 31.5832 93.9277 31.6807 93.2246 31.6807V33.6807C94.1152 33.6807 95.0064 33.5568 95.8961 33.3131L95.3676 31.3842ZM93.2246 31.6807C92.3918 31.6807 91.6075 31.5488 90.8661 31.2888L90.2043 33.1761C91.1672 33.5137 92.1759 33.6807 93.2246 33.6807V31.6807ZM90.8588 31.2863C90.1087 31.0296 89.4946 30.6986 88.9999 30.3046L87.754 31.8692C88.4546 32.4271 89.2793 32.8597 90.2115 33.1786L90.8588 31.2863ZM89.0163 30.318C88.1787 29.6215 87.4995 28.6661 86.9978 27.4118L85.1409 28.1546C85.7459 29.6672 86.6052 30.9143 87.7376 31.8558L89.0163 30.318ZM86.9988 27.4144C86.4936 26.1411 86.2393 24.7946 86.2393 23.3672H84.2393C84.2393 25.0387 84.5383 26.6363 85.1398 28.152L86.9988 27.4144ZM86.2393 23.3672C86.2393 20.9037 86.9433 19.0125 88.2758 17.5938L86.818 16.2246C85.0736 18.0819 84.2393 20.4961 84.2393 23.3672H86.2393ZM88.2766 17.5929C89.5308 16.2544 90.8006 15.2765 92.0809 14.6313L91.1808 12.8453C89.65 13.6167 88.1971 14.7527 86.8172 16.2254L88.2766 17.5929ZM92.0865 14.6285C93.3615 13.9759 94.6451 13.6592 95.9473 13.6592V11.6592C94.3054 11.6592 92.7114 12.0619 91.1753 12.8481L92.0865 14.6285ZM95.9473 13.6592C96.7241 13.6592 97.4639 13.7586 98.1699 13.9547L98.7051 12.0277C97.8174 11.7811 96.897 11.6592 95.9473 11.6592V13.6592ZM98.1823 13.9581C98.8876 14.1442 99.6483 14.4536 100.466 14.8988L101.422 13.1422C100.492 12.6356 99.5812 12.2588 98.6927 12.0243L98.1823 13.9581ZM98.989 16.5913C98.8434 17.2419 98.5291 17.8183 98.0231 18.3332L99.4496 19.7351C100.205 18.9662 100.71 18.0595 100.941 17.0279L98.989 16.5913ZM98.0169 18.3396C97.4931 18.8821 97.1273 18.9971 96.9102 18.9971V20.9971C97.8883 20.9971 98.74 20.4701 99.4557 19.7288L98.0169 18.3396ZM96.9102 18.9971C96.7943 18.9971 96.7245 18.9703 96.668 18.9326L95.5586 20.5967C95.9669 20.8689 96.4284 20.9971 96.9102 20.9971V18.9971ZM96.738 18.9838C96.7356 18.9819 96.7301 18.9772 96.7216 18.9647C96.7126 18.9515 96.6976 18.9256 96.6815 18.8805C96.6478 18.7861 96.6152 18.6246 96.6152 18.3701H94.6152C94.6152 19.166 94.8115 20.0039 95.4886 20.5455L96.738 18.9838ZM96.6152 18.3701C96.6152 18.0911 96.7032 17.7773 96.9453 17.4141L95.2812 16.3047C94.8593 16.9375 94.6152 17.6309 94.6152 18.3701H96.6152ZM96.9368 17.4267C97.1378 17.1349 97.4901 16.8475 98.0902 16.6111L97.3571 14.7503C96.4962 15.0894 95.775 15.5878 95.2898 16.2921L96.9368 17.4267ZM97.7236 14.6807C96.8633 14.6807 96.0281 14.8443 95.2247 15.1683L95.9726 17.0231C96.5415 16.7937 97.123 16.6807 97.7236 16.6807V14.6807ZM95.2194 15.1704C94.4481 15.4865 93.7649 15.9057 93.1828 16.4349L94.5281 17.9147C94.92 17.5585 95.3989 17.2583 95.9779 17.021L95.2194 15.1704ZM93.1922 16.4265C92.6206 16.933 92.1533 17.5172 91.7969 18.1772L93.5567 19.1275C93.7979 18.6807 94.1164 18.2798 94.5188 17.9232L93.1922 16.4265ZM91.7934 18.1836C91.4376 18.8542 91.2451 19.5618 91.2451 20.2959H93.2451C93.2451 19.9232 93.3404 19.5351 93.5601 19.1211L91.7934 18.1836ZM91.2451 20.2959C91.2451 21.7041 91.9283 22.8242 93.1341 23.5954L94.2116 21.9105C93.5138 21.4642 93.2451 20.9463 93.2451 20.2959H91.2451ZM93.1353 23.5962C94.1313 24.2311 95.1573 24.5996 96.1963 24.5996V22.5996C95.6415 22.5996 94.9852 22.4036 94.2104 21.9097L93.1353 23.5962ZM96.1963 24.5996C97.2252 24.5996 98.1517 24.2513 98.9377 23.5796L97.6384 22.0591C97.207 22.4278 96.739 22.5996 96.1963 22.5996V24.5996ZM98.9456 23.5728C99.6859 22.9267 100.239 22.1139 100.614 21.1588L98.7516 20.4291C98.4839 21.112 98.1077 21.6495 97.6306 22.0659L98.9456 23.5728ZM100.615 21.1546C100.976 20.2212 101.164 19.2801 101.164 18.3369H99.1641C99.1641 19.0096 99.0309 19.7066 98.7499 20.4333L100.615 21.1546ZM101.164 18.3369C101.164 17.7038 101.088 17.1009 100.926 16.5348L99.0033 17.0843C99.1072 17.448 99.1641 17.8633 99.1641 18.3369H101.164Z" fill="#0773D4"/>
</g>
<defs>
<filter id="filter0_d_1_2" x="0.638672" y="0.589844" width="107.643" height="45.1211" filterUnits="userSpaceOnUse" color-interpolation-filters="sRGB">
<feFlood flood-opacity="0" result="BackgroundImageFix"/>
<feColorMatrix in="SourceAlpha" type="matrix" values="0 0 0 0 0 0 0 0 0 0 0 0 0 0 0 0 0 0 127 0" result="hardAlpha"/>
<feOffset dy="4"/>
<feGaussianBlur stdDeviation="2"/>
<feComposite in2="hardAlpha" operator="out"/>
<feColorMatrix type="matrix" values="0 0 0 0 0 0 0 0 0 0 0 0 0 0 0 0 0 0 0.25 0"/>
<feBlend mode="normal" in2="BackgroundImageFix" result="effect1_dropShadow_1_2"/>
<feBlend mode="normal" in="SourceGraphic" in2="effect1_dropShadow_1_2" result="shape"/>
</filter>
</defs>
</svg>
